<svg xmlns="http://www.w3.org/2000/svg" version="1.1" xmlns:xlink="http://www.w3.org/1999/xlink" xmlns:svgjs="http://svgjs.dev/svgjs" width="1500" height="223" viewBox="0 0 1500 223"><g transform="matrix(1,0,0,1,-0.9090909090909918,-1.4505462099720177)"><svg viewBox="0 0 396 59" data-background-color="#ffffff" preserveAspectRatio="xMidYMid meet" height="223" width="1500" xmlns="http://www.w3.org/2000/svg" xmlns:xlink="http://www.w3.org/1999/xlink"><g id="tight-bounds" transform="matrix(1,0,0,1,0.2400000000000091,0.3837767999477535)"><svg viewBox="0 0 395.52 58.232446400104486" height="58.232446400104486" width="395.52"><g><svg viewBox="0 0 397.2740816184994 58.490700000000004" height="58.232446400104486" width="395.52"><g><svg viewBox="0 0 397.2740816184994 58.490700000000004" height="58.490700000000004" width="397.2740816184994"><g id="textblocktransform"><svg viewBox="0 0 397.2740816184994 58.490700000000004" height="58.490700000000004" width="397.2740816184994" id="textblock"><g><svg viewBox="0 0 397.2740816184994 58.490700000000004" height="58.490700000000004" width="397.2740816184994"><g><svg><g></g><g></g></svg></g><g><svg><g></g><g><svg></svg></g></svg></g><g id="text-0"><svg viewBox="0 0 397.2740816184994 58.490700000000004" height="58.490700000000004" width="397.2740816184994"><g><svg xmlns="http://www.w3.org/2000/svg" xmlns:xlink="http://www.w3.org/1999/xlink" version="1.1" x="0" y="0" viewBox="0 0 47.99900014340694 48" enable-background="new 0 0 48 48" xml:space="preserve" height="58.490700000000004" width="58.48948161849942" class="icon-dxe-0" data-fill-palette-color="accent" id="dxe-0"><g fill="#ff4136" data-fill-palette-color="accent"><path d="M36.321 7.052C35.326 7.052 34.367 7.181 33.445 7.4 32.641 3.194 28.723 0 24 0S15.36 3.194 14.555 7.399A12.4 12.4 0 0 0 11.679 7.051C5.229 7.052 0 11.948 0 17.987 0 24.027 5.229 28.924 11.678 28.924 13.227 28.924 14.703 28.635 16.056 28.121 17.785 30.498 20.697 32.06 23.999 32.06S30.214 30.497 31.942 28.121C33.295 28.635 34.77 28.924 36.32 28.924 42.77 28.924 47.999 24.028 47.999 17.987 48 11.948 42.771 7.052 36.321 7.052" fill="#ff4136" data-fill-palette-color="accent"></path><path d="M32.799 31.112C30.515 33.365 27.345 34.669 24 34.669 20.654 34.669 17.485 33.365 15.201 31.112 14.051 31.391 12.872 31.532 11.679 31.532 9.155 31.532 6.785 30.902 4.725 29.808L8.737 48H39.263L43.276 29.809A14.8 14.8 0 0 1 36.322 31.533 15 15 0 0 1 32.799 31.112" fill="#ff4136" data-fill-palette-color="accent"></path></g></svg></g><g transform="matrix(1,0,0,1,72.29878161849942,0)"><svg width="324.97529999999995" viewBox="4.2 -35.45 200.83 36.150000000000006" height="58.490700000000004" data-palette-color="#ff4136"><path d="M10.65 0L4.2 0 4.2-34.85 13.55-34.85Q17.1-34.85 20-33.77 22.9-32.7 24.63-30.04 26.35-27.38 26.35-22.65L26.35-22.65Q26.35-19.23 25.05-16.19 23.75-13.15 20.96-11.25 18.18-9.35 13.75-9.35L13.75-9.35 10.65-9.35 10.65 0ZM13.15-29.8L13.15-29.8 10.65-29.8 10.65-14.6 13.3-14.6Q16.6-14.6 18.25-16.57 19.9-18.55 19.9-22.3L19.9-22.3Q19.9-26.13 18.4-27.96 16.9-29.8 13.15-29.8ZM44.35 0.6L44.35 0.6Q39.62 0.6 36.38-1.64 33.15-3.88 31.47-7.93 29.8-11.98 29.8-17.45L29.8-17.45Q29.8-22.88 31.45-26.93 33.1-30.98 36.31-33.21 39.52-35.45 44.2-35.45L44.2-35.45Q49.07-35.45 52.31-33.18 55.55-30.9 57.17-26.85 58.8-22.8 58.8-17.45L58.8-17.45Q58.8-11.98 57.12-7.93 55.45-3.88 52.22-1.64 49 0.6 44.35 0.6ZM44.35-4.75L44.35-4.75Q47.62-4.75 49.89-7.91 52.15-11.08 52.15-17.6L52.15-17.6Q52.15-23.88 50.03-27.06 47.92-30.25 44.2-30.25L44.2-30.25Q40.57-30.25 38.53-27.05 36.5-23.85 36.5-17.55L36.5-17.55Q36.5-11.03 38.66-7.89 40.82-4.75 44.35-4.75ZM71.4 0L64.95 0 64.95-34.85 74.3-34.85Q77.84-34.85 80.75-33.77 83.65-32.7 85.37-30.04 87.09-27.38 87.09-22.65L87.09-22.65Q87.09-19.23 85.8-16.19 84.5-13.15 81.71-11.25 78.92-9.35 74.5-9.35L74.5-9.35 71.4-9.35 71.4 0ZM73.9-29.8L73.9-29.8 71.4-29.8 71.4-14.6 74.05-14.6Q77.34-14.6 79-16.57 80.65-18.55 80.65-22.3L80.65-22.3Q80.65-26.13 79.15-27.96 77.65-29.8 73.9-29.8ZM104.59 0.6L104.59 0.6Q101.87 0.6 99.34-0.51 96.82-1.63 94.81-3.89 92.79-6.15 91.62-9.65 90.44-13.15 90.44-17.9L90.44-17.9Q90.44-23.6 92.43-27.51 94.42-31.43 97.75-33.44 101.09-35.45 105.14-35.45L105.14-35.45Q107.89-35.45 109.63-34.93 111.37-34.4 112.41-33.68 113.44-32.95 114.09-32.35L114.09-32.35 111.29-27.1Q110.22-28.28 109.07-28.99 107.92-29.7 105.39-29.7L105.39-29.7Q102.84-29.7 101.06-28.23 99.27-26.75 98.33-24.16 97.39-21.58 97.39-18.25L97.39-18.25Q97.39-11.73 99.58-8.41 101.77-5.1 104.84-5.1L104.84-5.1Q107.22-5.1 108.89-5.78 110.57-6.45 111.39-7.3L111.39-7.3 114.14-2.35Q113.44-1.78 112.28-1.09 111.12-0.4 109.25 0.1 107.39 0.6 104.59 0.6ZM130.94 0.6L130.94 0.6Q126.22 0.6 122.98-1.64 119.74-3.88 118.06-7.93 116.39-11.98 116.39-17.45L116.39-17.45Q116.39-22.88 118.04-26.93 119.69-30.98 122.9-33.21 126.11-35.45 130.79-35.45L130.79-35.45Q135.66-35.45 138.9-33.18 142.14-30.9 143.76-26.85 145.39-22.8 145.39-17.45L145.39-17.45Q145.39-11.98 143.72-7.93 142.04-3.88 138.81-1.64 135.59 0.6 130.94 0.6ZM130.94-4.75L130.94-4.75Q134.22-4.75 136.48-7.91 138.74-11.08 138.74-17.6L138.74-17.6Q138.74-23.88 136.63-27.06 134.51-30.25 130.79-30.25L130.79-30.25Q127.16-30.25 125.13-27.05 123.09-23.85 123.09-17.55L123.09-17.55Q123.09-11.03 125.25-7.89 127.41-4.75 130.94-4.75ZM165.59-12.1L174.59 0 166.84 0 157.89-12.6 157.89 0 151.54 0 151.54-34.85 161.24-34.85Q164.79-34.85 167.59-33.81 170.39-32.77 172.01-30.35 173.64-27.93 173.64-23.75L173.64-23.75Q173.64-21.48 172.88-19.06 172.11-16.65 170.35-14.75 168.59-12.85 165.59-12.1L165.59-12.1ZM157.89-29.85L157.89-15.75 160.54-15.75Q162.74-15.75 164.22-16.79 165.71-17.82 166.47-19.51 167.24-21.2 167.24-23.15L167.24-23.15Q167.24-26.53 165.69-28.19 164.14-29.85 160.39-29.85L160.39-29.85 157.89-29.85ZM205.03 0.7L204.53 0.7 187.84-18.35 186.28-20.35 186.53-15.5 186.53 0 180.38 0 180.38-35.45 180.94-35.45 197.38-16.25 199.13-13.98 198.88-18.75 198.88-34.85 205.03-34.85 205.03 0.7Z" opacity="1" transform="matrix(1,0,0,1,0,0)" fill="#ff4136" class="wordmark-text-0" data-fill-palette-color="primary"></path></svg></g></svg></g></svg></g></svg></g></svg></g></svg></g><defs></defs></svg><rect width="395.52" height="58.232446400104486" fill="none" stroke="none" visibility="hidden"></rect></g></svg></g></svg>